<svg xmlns="http://www.w3.org/2000/svg" viewBox="0 0 400 430" width="100%" height="100%">
    <g transform="rotate(-12 200 210)">
        <polygon points="200,15 178,100 200,245" fill="#F45B45" />
        <polygon points="178,100 132,68 152,148 200,245" fill="#ED4A3B" />
        <polygon points="152,148 28,128 78,172 200,245" fill="#D9362E" />
        <polygon points="78,172 12,205 78,242 200,245" fill="#C22424" />
        <polygon points="78,242 62,282 140,265 200,245" fill="#A31A1F" />
        <polygon points="140,265 184,278 200,245" fill="#801117" />
        <polygon points="200,15 222,100 200,245" fill="#DA3831" />
        <polygon points="222,100 268,68 248,148 200,245" fill="#C22424" />
        <polygon points="248,148 372,128 322,172 200,245" fill="#A81A1A" />
        <polygon points="322,172 388,205 322,242 200,245" fill="#8F1010" />
        <polygon points="322,242 338,282 260,265 200,245" fill="#740808" />
        <polygon points="260,265 216,278 200,245" fill="#560404" />
        <rect x="184" y="270" width="32" height="10" fill="#52080D" />
        <path d="M 193,278 C 193,300 220,320 215,360 C 212,390 196,400 200,405" stroke="#3A0202" stroke-width="14" stroke-linecap="round" fill="none" />
    </g>
    <g>
        <rect x="150" y="135" width="100" height="135" rx="13" fill="#0F1C2E" stroke="#FFFFFF" stroke-width="5" stroke-linejoin="round" />
        <rect x="166" y="151" width="68" height="26" rx="4" fill="#FFFFFF" />
        <rect x="166" y="192" width="16" height="15" rx="3" fill="#FFFFFF" />
        <rect x="192" y="192" width="16" height="15" rx="3" fill="#FFFFFF" />
        <rect x="218" y="192" width="16" height="15" rx="3" fill="#F45B45" />
        <rect x="166" y="217" width="16" height="15" rx="3" fill="#FFFFFF" />
        <rect x="192" y="217" width="16" height="15" rx="3" fill="#FFFFFF" />
        <rect x="218" y="217" width="16" height="15" rx="3" fill="#F45B45" />
        <rect x="166" y="242" width="16" height="15" rx="3" fill="#FFFFFF" />
        <rect x="192" y="242" width="16" height="15" rx="3" fill="#FFFFFF" />
        <rect x="218" y="242" width="16" height="15" rx="3" fill="#F45B45" />
    </g>
</svg>
